<svg id="Layer_1" height="512" viewBox="0 0 512 512" width="512" xmlns="http://www.w3.org/2000/svg" data-name="Layer 1"><path d="m489.76 435.49-269.35-269.35a109.681 109.681 0 0 0 -134.61-149.49l44.46 44.46-11.48 57.25-59.17 10.46-42.89-43.18h-.01a109.676 109.676 0 0 0 149.43 134.77l269.36 269.35a38.371 38.371 0 1 0 54.26-54.27z" fill="#b0b5ca"/><path d="m494.08 36.72-33.07 56.55-29.13 10.34-113.41 113.41-1.78 1.78-23.49-23.49 1.78-1.78 113.41-113.41 10.34-29.13 56.55-33.07z" fill="#e5e5e5"/><path d="m270.506 191.261h40.348v60.118h-40.348z" fill="#a0eaea" transform="matrix(.707 -.707 .707 .707 -71.359 270.364)"/><path d="m305.78 264.95-58.73-58.73a16.61 16.61 0 0 0 -23.49 23.49l58.73 58.73a16.61 16.61 0 0 0 23.49-23.49z" fill="#e75163"/><path d="m226.22 232.37-60.82 33.28-135.5 135.5a40.879 40.879 0 0 0 0 57.82l23.13 23.13a40.879 40.879 0 0 0 57.82 0l135.5-135.5 33.28-60.82z" fill="#fb6771"/><path d="m63.11 211.16a109.581 109.581 0 0 1 -28.058-107.06l-18.332-18.46h-.01a109.745 109.745 0 0 0 54.646 132.954c-2.838-2.321-5.598-4.786-8.246-7.434z" fill="#ccd3df"/><path d="m49.9 471.97a40.879 40.879 0 0 1 0-57.82l135.5-135.5 56.3-30.8-15.48-15.48-60.82 33.28-135.5 135.5a40.879 40.879 0 0 0 0 57.82l23.13 23.13a40.679 40.679 0 0 0 17.3 10.3z" fill="#db525f"/><g fill="#284268"><path d="m312.873 250.119 17.568-17.569a6 6 0 0 0 0-8.486l-5.265-5.265 109.988-109.988 27.849-9.882a6 6 0 0 0 3.173-2.627l33.07-56.559a6 6 0 0 0 -.937-7.271l-18.791-18.791a6 6 0 0 0 -7.272-.937l-56.556 33.07a6.006 6.006 0 0 0 -2.626 3.173l-9.882 27.849-109.992 109.988-5.265-5.265a6 6 0 0 0 -8.486 0l-17.569 17.568-34.342-34.342a115.681 115.681 0 0 0 -143.638-153.826 6 6 0 0 0 -2.342 9.934l42.188 42.188-10.044 50.085-52.051 9.2-40.672-40.955a6.014 6.014 0 0 0 -9.961 2.318 115.677 115.677 0 0 0 153.769 143.808l20.431 20.431-22.7 12.42a5.985 5.985 0 0 0 -1.362 1.021l-135.5 135.5a46.937 46.937 0 0 0 0 66.3l23.127 23.128a46.938 46.938 0 0 0 66.3 0l135.5-135.5a5.985 5.985 0 0 0 1.021-1.362l12.42-22.7 167.229 167.225a44.372 44.372 0 1 0 62.752-62.752zm-11.34 34.074a10.62 10.62 0 0 1 -15 0l-58.723-58.722a10.609 10.609 0 0 1 15-15l58.722 58.722a10.621 10.621 0 0 1 .001 15zm111.1-199.83a6 6 0 0 0 1.412-2.237l9.6-27.06 50.671-29.626 12.244 12.244-29.627 50.669-27.06 9.6a6 6 0 0 0 -2.236 1.412l-110.947 110.948-15-15zm-128.94 109.924 34.02 34.02-20.046 20.046-34.02-34.021zm-113.309 21.877a6 6 0 0 0 -6.733-1.216 104.1 104.1 0 0 1 -116.3-21.033 103.026 103.026 0 0 1 -27.68-96.792l35.68 35.925a6 6 0 0 0 5.3 1.68l59.174-10.457a6 6 0 0 0 4.839-4.729l11.482-57.252a6 6 0 0 0 -1.64-5.422l-37.231-37.232a103.684 103.684 0 0 1 117.675 144.014 6 6 0 0 0 1.216 6.733l26.1 26.1a22.555 22.555 0 0 0 -26.677 10.449l-10.651-10.652a6 6 0 1 0 -8.486 8.485l16.534 16.534a22.53 22.53 0 0 0 3.7 9.457l-20.491 11.214zm71.114 126.8-134.898 134.895a34.925 34.925 0 0 1 -49.334 0l-23.125-23.128a34.925 34.925 0 0 1 0-49.334l134.895-134.897 56.12-30.712 47.054 47.054zm244.022 142.554a32.371 32.371 0 0 1 -45.781 0l-169.7-169.7 11.214-20.493a22.564 22.564 0 0 0 9.56 3.732c.1.123.189.257.306.374l131.753 131.754a6 6 0 0 0 8.485-8.485l-126.3-126.3a22.481 22.481 0 0 0 10.459-26.667l170 170a32.371 32.371 0 0 1 0 45.781z"/><path d="m197.317 139.678a6 6 0 0 0 5.976-5.538 92.849 92.849 0 0 0 -4.412-36.314 6 6 0 1 0 -11.393 3.769 80.849 80.849 0 0 1 3.84 31.621 6 6 0 0 0 5.52 6.444c.158.012.314.018.469.018z"/><path d="m188.719 76.651a92.728 92.728 0 0 0 -5.68-7.826 6 6 0 1 0 -9.33 7.547 80.821 80.821 0 0 1 4.943 6.809 6 6 0 1 0 10.067-6.53z"/><path d="m185.342 344.011-95.859 95.859a6 6 0 0 0 8.485 8.485l95.859-95.855a6 6 0 0 0 -8.485-8.486z"/><path d="m167.989 318.173a6 6 0 0 0 -8.485 0l-95.859 95.859a6 6 0 0 0 8.485 8.485l95.859-95.858a6 6 0 0 0 0-8.486z"/></g></svg>