<svg height="512pt" viewBox="0 -41 512 512" width="512pt" xmlns="http://www.w3.org/2000/svg"><path d="m397.679688 226.011719c0 78.46875-63.613282 142.09375-142.089844 142.09375-78.480469 0-142.09375-63.625-142.09375-142.09375 0-41.144531 17.492187-78.210938 45.441406-104.171875h.007812c25.355469-23.539063 59.320313-37.933594 96.640626-37.933594 37.324218 0 71.289062 14.394531 96.640624 37.933594h.011719c27.949219 25.960937 45.441407 63.027344 45.441407 104.171875zm0 0" fill="#fab03c"/><path d="m397.679688 226.011719c0 78.46875-63.613282 142.09375-142.089844 142.09375-78.480469 0-142.09375-63.625-142.09375-142.09375 0-41.144531 17.492187-78.210938 45.441406-104.171875h.007812c29.535157 13.132812 62.234376 20.4375 96.640626 20.4375 34.410156 0 67.105468-7.304688 96.640624-20.4375h.011719c27.949219 25.960937 45.441407 63.027344 45.441407 104.171875zm0 0" fill="#fd8f3e"/><path d="m280.246094 217.53125c2.667968-44.078125 39.253906-79 84-79 36.089844 0 66.871094 22.714844 78.832031 54.628906 31.078125.375 56.15625 25.671875 56.15625 56.839844 0 31.398438-25.453125 56.855469-56.855469 56.855469-13.144531 0-147.0625 0-160.570312 0-24.675782 0-44.679688-20.003907-44.679688-44.683594 0-24.152344 19.167969-43.816406 43.117188-44.640625zm0 0" fill="#fbdbb7"/><path d="m499.238281 250.003906c0 31.128906-25.035156 56.417969-56.074219 56.839844 9.304688-10.128906 14.980469-23.621094 14.980469-38.449219 0-31.164062-25.078125-56.460937-56.160156-56.839843-11.960937-31.90625-42.738281-54.628907-78.832031-54.628907-4.261719 0-8.449219.320313-12.546875.933594 14.558593-12.074219 33.25-19.324219 53.640625-19.324219 36.09375 0 66.867187 22.710938 78.828125 54.628906 31.085937.378907 56.164062 25.664063 56.164062 56.839844zm0 0" fill="#f4bc8e"/><path d="m39.933594 231.84375c2.042968-33.769531 30.070312-60.523438 64.351562-60.523438 27.648438 0 51.230469 17.40625 60.394532 41.855469 23.808593.285157 43.023437 19.664063 43.023437 43.542969 0 24.058594-19.503906 43.558594-43.558594 43.558594-10.070312 0-112.667969 0-123.015625 0-18.90625 0-34.234375-15.328125-34.234375-34.230469 0-18.507813 14.6875-33.570313 33.039063-34.203125zm0 0" fill="#fbdbb7"/><path d="m207.703125 256.722656c0 23.847656-19.175781 43.222656-42.957031 43.546875 7.128906-7.761719 11.476562-18.097656 11.476562-29.457031 0-23.875-19.210937-43.257812-43.027344-43.546875-9.164062-24.445313-32.742187-41.851563-60.390624-41.851563-3.269532 0-6.476563.246094-9.617188.714844 11.15625-9.25 25.472656-14.804687 41.097656-14.804687 27.652344 0 51.226563 17.398437 60.390625 41.851562 23.816407.289063 43.027344 19.664063 43.027344 43.546875zm0 0" fill="#f4bc8e"/><path d="m512 279.046875v130.855469c0 11.378906-9.226562 20.605468-20.605469 20.605468h-470.789062c-11.378907-.003906-20.605469-9.226562-20.605469-20.605468v-130.855469c0-5.6875 4.613281-10.300781 10.300781-10.300781h491.398438c5.6875 0 10.300781 4.613281 10.300781 10.300781zm0 0" fill="#fe672d"/><path d="m512 351.6875v58.214844c0 11.378906-9.226562 20.605468-20.605469 20.605468h-470.789062c-11.378907-.003906-20.605469-9.226562-20.605469-20.605468v-58.214844zm0 0" fill="#d85322"/><path d="m512 279.046875v23.234375h-512v-23.234375c0-5.6875 4.613281-10.300781 10.300781-10.300781h491.398438c5.6875 0 10.300781 4.613281 10.300781 10.300781zm0 0" fill="#fd8f3e"/><path d="m391.140625 268.746094c-3.761719 11.941406-9.054687 23.1875-15.648437 33.53125-13.230469 20.757812-31.710938 37.851562-53.570313 49.410156-19.800781 10.476562-42.382813 16.410156-66.332031 16.410156-23.953125 0-46.535156-5.933594-66.332032-16.410156-21.863281-11.558594-40.34375-28.652344-53.570312-49.410156-6.59375-10.34375-11.886719-21.59375-15.648438-33.53125zm0 0" fill="#f6cb43"/><path d="m321.921875 351.6875c-19.800781 10.476562-42.382813 16.410156-66.332031 16.410156-23.953125 0-46.535156-5.933594-66.335938-16.410156zm0 0" fill="#fab03c"/><path d="m391.140625 268.746094c-3.761719 11.941406-9.054687 23.1875-15.648437 33.53125h-239.808594c-6.589844-10.34375-11.886719-21.59375-15.648438-33.53125zm0 0" fill="#f8e98e"/><path d="m172.917969 334.710938h-58.054688c-4.265625 0-7.722656-3.460938-7.722656-7.726563s3.457031-7.726563 7.722656-7.726563h58.054688c4.265625 0 7.726562 3.460938 7.726562 7.726563s-3.460937 7.726563-7.726562 7.726563zm0 0" fill="#f6cb43"/><path d="m396.011719 390.507812h-116.105469c-4.269531 0-7.726562-3.460937-7.726562-7.726562 0-4.269531 3.457031-7.726562 7.726562-7.726562h116.105469c4.265625 0 7.722656 3.457031 7.722656 7.726562 0 4.265625-3.457031 7.726562-7.722656 7.726562zm0 0" fill="#fab03c"/><path d="m236.730469 405.210938h-58.054688c-4.265625 0-7.726562-3.460938-7.726562-7.726563s3.460937-7.726563 7.726562-7.726563h58.054688c4.265625 0 7.722656 3.460938 7.722656 7.726563s-3.457031 7.726563-7.722656 7.726563zm0 0" fill="#fab03c"/><path d="m406.277344 302.277344h-122.949219c-4.265625 0-7.722656-3.457032-7.722656-7.726563 0-4.265625 3.457031-7.726562 7.722656-7.726562h122.949219c4.269531 0 7.726562 3.460937 7.726562 7.726562 0 4.269531-3.457031 7.726563-7.726562 7.726563zm0 0" fill="#fd8f3e"/><path d="m426.003906 50.5625c-8.386718 0-15.953125 3.585938-21.246094 9.300781-5.296874-5.714843-12.859374-9.300781-21.246093-9.300781-15.976563 0-28.976563 12.996094-28.976563 28.972656 0 4.269532 3.460938 7.726563 7.726563 7.726563s7.726562-3.460938 7.726562-7.726563c0-7.457031 6.066407-13.519531 13.519531-13.519531 5.3125 0 9.90625 3.085937 12.117188 7.554687-3.152344.972657-5.441406 3.910157-5.441406 7.378907 0 4.269531 3.460937 7.726562 7.726562 7.726562h13.691406c4.269532 0 7.726563-3.457031 7.726563-7.726562 0-3.46875-2.289063-6.40625-5.441406-7.378907 2.210937-4.46875 6.804687-7.554687 12.117187-7.554687 7.457032 0 13.519532 6.0625 13.519532 13.519531 0 4.269532 3.460937 7.726563 7.726562 7.726563 4.269531 0 7.726562-3.460938 7.726562-7.726563 0-15.976562-12.996093-28.972656-28.972656-28.972656zm0 0" fill="#915040"/><path d="m86.320312 106.269531c-8.386718 0-15.953124 3.585938-21.246093 9.300781-5.296875-5.714843-12.859375-9.300781-21.246094-9.300781-15.976563 0-28.976563 12.996094-28.976563 28.972657 0 4.269531 3.460938 7.726562 7.726563 7.726562 4.269531 0 7.726563-3.457031 7.726563-7.726562 0-7.457032 6.066406-13.519532 13.519531-13.519532 5.316406 0 9.90625 3.085938 12.117187 7.554688-3.152344.976562-5.441406 3.910156-5.441406 7.382812 0 4.269532 3.460938 7.726563 7.726562 7.726563h13.695313c4.265625 0 7.722656-3.460938 7.722656-7.726563 0-3.472656-2.289062-6.40625-5.441406-7.382812 2.210937-4.46875 6.804687-7.554688 12.117187-7.554688 7.457032 0 13.523438 6.066406 13.523438 13.519532 0 4.269531 3.457031 7.726562 7.722656 7.726562 4.269532 0 7.726563-3.457031 7.726563-7.726562.003906-15.976563-12.996094-28.972657-28.972657-28.972657zm0 0" fill="#cf8671"/><path d="m351.476562 15.453125c7.457032 0 13.523438 6.066406 13.523438 13.519531 0 4.269532 3.457031 7.726563 7.726562 7.726563 4.265626 0 7.722657-3.457031 7.722657-7.726563 0-15.976562-12.996094-28.972656-28.972657-28.972656-8.386718 0-15.953124 3.585938-21.246093 9.304688-5.296875-5.71875-12.859375-9.304688-21.246094-9.304688-15.976563 0-28.976563 12.996094-28.976563 28.972656 0 4.269532 3.460938 7.726563 7.726563 7.726563 4.269531 0 7.726563-3.457031 7.726563-7.726563 0-7.453125 6.066406-13.519531 13.519531-13.519531 5.316406 0 9.90625 3.085937 12.117187 7.554687-3.152344.976563-5.441406 3.910157-5.441406 7.382813 0 4.269531 3.460938 7.726563 7.726562 7.726563h13.691407c4.269531 0 7.726562-3.460938 7.726562-7.726563 0-3.472656-2.289062-6.40625-5.441406-7.382813 2.210937-4.46875 6.804687-7.554687 12.117187-7.554687zm0 0" fill="#915040"/></svg>