<svg height="512pt" viewBox="0 -39 512 512" width="512pt" xmlns="http://www.w3.org/2000/svg"><path d="m397.683594 229.976562c0 78.476563-63.621094 142.09375-142.09375 142.09375-78.476563 0-142.097656-63.617187-142.097656-142.09375 0-78.476562 63.621093-142.09375 142.097656-142.09375 78.472656 0 142.09375 63.617188 142.09375 142.09375zm0 0" fill="#fab03c"/><path d="m397.679688 229.972656c0 78.480469-63.613282 142.09375-142.089844 142.09375-78.480469 0-142.09375-63.613281-142.09375-142.09375 0-25.878906 6.921875-50.136718 19.015625-71.039062 24.558593 42.472656 70.484375 71.039062 123.078125 71.039062 52.589844 0 98.515625-28.566406 123.074218-71.039062 12.09375 20.902344 19.015626 45.160156 19.015626 71.039062zm0 0" fill="#fd8f3e"/><g fill="#f8e98e"><path d="m255.589844 46.058594c-4.269532 0-7.726563-3.460938-7.726563-7.726563v-30.605469c0-4.269531 3.457031-7.726562 7.726563-7.726562 4.265625 0 7.722656 3.460938 7.722656 7.726562v30.605469c0 4.265625-3.457031 7.726563-7.722656 7.726563zm0 0"/><path d="m159.773438 71.734375c-2.671876 0-5.269532-1.386719-6.699219-3.863281l-15.300781-26.507813c-2.136719-3.691406-.867188-8.417969 2.828124-10.550781 3.695313-2.132812 8.417969-.871094 10.550782 2.828125l15.304687 26.503906c2.132813 3.695313.867188 8.421875-2.828125 10.554688-1.21875.699219-2.546875 1.035156-3.855468 1.035156zm0 0"/><path d="m89.609375 141.882812c-1.308594 0-2.636719-.335937-3.855469-1.039062l-26.503906-15.300781c-3.695312-2.136719-4.960938-6.859375-2.828125-10.554688 2.132813-3.695312 6.859375-4.960937 10.554687-2.828125l26.503907 15.304688c3.695312 2.132812 4.960937 6.855468 2.828125 10.550781-1.429688 2.480469-4.027344 3.867187-6.699219 3.867187zm0 0"/><path d="m477.839844 237.703125h-30.605469c-4.269531 0-7.726563-3.460937-7.726563-7.726563 0-4.265624 3.457032-7.726562 7.726563-7.726562h30.605469c4.265625 0 7.722656 3.460938 7.722656 7.726562 0 4.265626-3.457031 7.726563-7.722656 7.726563zm0 0"/><path d="m63.941406 237.703125h-30.601562c-4.269532 0-7.726563-3.460937-7.726563-7.726563 0-4.265624 3.457031-7.726562 7.726563-7.726562h30.601562c4.269532 0 7.726563 3.460938 7.726563 7.726562 0 4.265626-3.457031 7.726563-7.726563 7.726563zm0 0"/><path d="m421.5625 141.882812c-2.667969 0-5.265625-1.386718-6.695312-3.867187-2.136719-3.695313-.871094-8.417969 2.828124-10.550781l26.503907-15.304688c3.695312-2.132812 8.421875-.867187 10.554687 2.828125 2.132813 3.695313.867188 8.421875-2.828125 10.554688l-26.503906 15.300781c-1.21875.703125-2.546875 1.039062-3.859375 1.039062zm0 0"/><path d="m351.402344 71.734375c-1.308594 0-2.636719-.335937-3.855469-1.035156-3.695313-2.136719-4.960937-6.859375-2.828125-10.554688l15.300781-26.503906c2.132813-3.699219 6.859375-4.964844 10.554688-2.828125 3.695312 2.132812 4.960937 6.859375 2.828125 10.550781l-15.300782 26.507813c-1.429687 2.476562-4.027343 3.863281-6.699218 3.863281zm0 0"/></g><path d="m512 283.015625v130.855469c0 11.378906-9.226562 20.605468-20.605469 20.605468h-470.789062c-11.378907-.003906-20.605469-9.226562-20.605469-20.605468v-130.855469c0-5.6875 4.613281-10.300781 10.300781-10.300781h491.398438c5.6875 0 10.300781 4.613281 10.300781 10.300781zm0 0" fill="#38aaff"/><path d="m512 355.65625v58.214844c0 11.378906-9.226562 20.605468-20.605469 20.605468h-470.789062c-11.378907-.003906-20.605469-9.226562-20.605469-20.605468v-58.214844zm0 0" fill="#2081f6"/><path d="m512 283.015625v23.234375h-512v-23.234375c0-5.6875 4.613281-10.300781 10.300781-10.300781h491.398438c5.6875 0 10.300781 4.613281 10.300781 10.300781zm0 0" fill="#a0ecff"/><path d="m391.140625 272.714844c-3.761719 11.941406-9.054687 23.1875-15.648437 33.53125-13.230469 20.757812-31.710938 37.851562-53.570313 49.410156-19.800781 10.476562-42.382813 16.410156-66.332031 16.410156-23.953125 0-46.535156-5.933594-66.332032-16.410156-21.863281-11.558594-40.34375-28.648438-53.570312-49.410156-6.59375-10.34375-11.886719-21.59375-15.648438-33.53125zm0 0" fill="#f6cb43"/><path d="m321.921875 355.65625c-19.800781 10.476562-42.382813 16.410156-66.332031 16.410156-23.953125 0-46.535156-5.933594-66.335938-16.410156zm0 0" fill="#fab03c"/><path d="m391.140625 272.714844c-3.761719 11.941406-9.054687 23.1875-15.648437 33.53125h-239.808594c-6.589844-10.34375-11.886719-21.59375-15.648438-33.53125zm0 0" fill="#f8e98e"/><path d="m214.640625 332.359375h-125.3125c-4.265625 0-7.726563-3.457031-7.726563-7.726563 0-4.265624 3.460938-7.726562 7.726563-7.726562h125.3125c4.265625 0 7.726563 3.460938 7.726563 7.726562 0 4.269532-3.460938 7.726563-7.726563 7.726563zm0 0" fill="#38aaff"/><path d="m383.679688 340.085938h-84.410157c-4.269531 0-7.726562-3.457032-7.726562-7.726563 0-4.265625 3.457031-7.726563 7.726562-7.726563h84.410157c4.265624 0 7.726562 3.460938 7.726562 7.726563 0 4.269531-3.460938 7.726563-7.726562 7.726563zm0 0" fill="#f6cb43"/><path d="m428.65625 384.761719h-26.40625c-4.265625 0-7.726562-3.457031-7.726562-7.726563 0-4.265625 3.460937-7.722656 7.726562-7.722656h26.410156c4.265625 0 7.726563 3.457031 7.726563 7.722656 0 4.269532-3.460938 7.726563-7.730469 7.726563zm0 0" fill="#38aaff"/></svg>